<?xml version="1.0"?>
<svg xmlns="http://www.w3.org/2000/svg" height="512px" viewBox="-48 0 512 512" width="512px" class=""><g><path d="m32 16h352c17.671875 0 32 14.328125 32 32v432c0 17.671875-14.328125 32-32 32h-352c-17.671875 0-32-14.328125-32-32v-432c0-17.671875 14.328125-32 32-32zm0 0" fill="#ecce93" data-original="#ECCE93" class="active-path" data-old_color="#ecce93" style="fill:#93AAEC"/><path d="m32 374.625v-326.625h352v432h-246.625zm0 0" fill="#e4edfb" data-original="#E4EDFB" class=""/><g fill="#e76e54"><path d="m137.375 374.625v105.375l-105.375-105.375zm0 0" data-original="#E76E54" class="" style="fill:#54E76A" data-old_color="#E76E54"/><path d="m128 64v-64h160v64c0 17.671875-14.328125 32-32 32h-96c-17.671875 0-32-14.328125-32-32zm0 0" data-original="#E76E54" class="" style="fill:#54E76A" data-old_color="#E76E54"/></g></g> </svg>
